<svg width="16" height="18" viewBox="0 0 16 18" fill="none" xmlns="http://www.w3.org/2000/svg">
<path fill-rule="evenodd" clip-rule="evenodd" d="M6 0L7.7 2H4C1.79086 2 0 3.79086 0 6V8H1C1 9.2 1 11.35 2.5241 13.8815C3.20388 14.9215 4.12099 15.7853 5.19991 16.4015L8 18L10.8001 16.4015C11.879 15.7853 12.7961 14.9215 13.4759 13.8815C15 11.35 15 9.2 15 8H16V6C16 3.79086 14.2091 2 12 2H8.3L10 0H6ZM13 8H3C3 9.09594 3.00199 10.7798 4.218 12.8173C4.72234 13.5787 5.39818 14.2114 6.19146 14.6646L6.19186 14.6648L8 15.7L9.80815 14.6648L9.80847 14.6646C10.6017 14.2115 11.2777 13.5787 11.782 12.8173C12.998 10.7798 13 9.09594 13 8ZM12 4H4C2.89543 4 2 4.89543 2 6H14C14 4.89543 13.1046 4 12 4Z" fill="currentColor"/>
</svg>
