<svg width="16" height="12" viewBox="0 0 16 12" fill="none" xmlns="http://www.w3.org/2000/svg">
<path d="M12.75 7V5.25H11V3.75H12.75V2H14.25V3.75H16V5.25H14.25V7H12.75ZM6 6C5.16667 6 4.45833 5.70833 3.875 5.125C3.29167 4.54167 3 3.83333 3 3C3 2.16667 3.29167 1.45833 3.875 0.875C4.45833 0.291667 5.16667 0 6 0C6.83333 0 7.54167 0.291667 8.125 0.875C8.70833 1.45833 9 2.16667 9 3C9 3.83333 8.70833 4.54167 8.125 5.125C7.54167 5.70833 6.83333 6 6 6ZM0 12V10.0833C0 9.72528 0.0868056 9.39618 0.260417 9.09604C0.434028 8.7959 0.673611 8.55556 0.979167 8.375C1.74306 7.93056 2.54861 7.59028 3.39583 7.35417C4.24306 7.11806 5.11111 7 6 7C6.88889 7 7.75694 7.11806 8.60417 7.35417C9.45139 7.59028 10.2569 7.93056 11.0208 8.375C11.3264 8.55556 11.566 8.7959 11.7396 9.09604C11.9132 9.39618 12 9.72528 12 10.0833V12H0Z" fill="currentColor"/>
</svg>
