<svg width="24" height="24" viewBox="0 0 24 24" fill="none" xmlns="http://www.w3.org/2000/svg">
<path fill-rule="evenodd" clip-rule="evenodd" d="M11.2625 10.7416C12.3451 11.0578 15.0961 11.8611 15.5577 10C15.9924 8.21957 13.7088 7.67297 12.4581 7.37362C12.265 7.3274 12.0965 7.28708 11.9665 7.24901L11.104 10.6957C11.1516 10.7093 11.2047 10.7248 11.2625 10.7416ZM9.73962 16.2767L10.6805 12.4664C10.7772 12.4901 10.8918 12.5159 11.0204 12.5445C11.0387 12.5486 11.0574 12.5528 11.0763 12.557C12.5155 12.8774 15.5353 13.5497 15.0245 15.581C14.5302 17.5744 11.4078 16.7279 10.0303 16.3544C10.0167 16.3508 10.0033 16.3471 9.99013 16.3436C9.89768 16.3185 9.8137 16.2959 9.73962 16.2767ZM16.2163 3.18577L15.5106 6.03162C17.6747 6.79051 19.2743 7.91304 18.9607 10.0158C18.7254 11.5652 17.8786 12.2767 16.7495 12.5771C18.3177 13.3834 19.1018 14.6482 18.3177 16.7826C17.4081 19.4545 15.1813 19.6759 12.2801 19.1225L11.5587 22L9.83372 21.5573L10.5394 18.7273C10.2633 18.6477 9.98105 18.5745 9.69258 18.4996C9.52224 18.4554 9.34974 18.4106 9.17507 18.3636L8.46938 21.2253L6.74436 20.7826L7.46573 17.9051C7.14248 17.8299 6.81923 17.7448 6.48816 17.6576C6.40164 17.6348 6.31458 17.6119 6.22685 17.5889L4 17.0198L4.84683 15.0435C4.84683 15.0435 6.11707 15.3755 6.10139 15.3597C6.55617 15.4387 6.80708 15.1542 6.88549 14.9328L8.81438 7.13834C8.84575 6.74308 8.72029 6.3004 8.0146 6.12648C8.04597 6.11067 6.76004 5.81028 6.76004 5.81028L7.2305 3.96047L9.59849 4.56126C9.8036 4.61766 10.0198 4.66847 10.2405 4.72034C10.391 4.75571 10.5436 4.79157 10.6962 4.83004L11.4019 2L13.1113 2.41107L12.4213 5.20949C12.8917 5.30435 13.3465 5.41502 13.8013 5.52569L14.4913 2.79051L16.2163 3.18577Z" fill="currentColor"/>
</svg>
