<svg width="24" height="24" viewBox="0 0 24 24" fill="none" xmlns="http://www.w3.org/2000/svg">
<path fill-rule="evenodd" clip-rule="evenodd" d="M11.0657 17.9944C7.7886 17.7802 6 16.4803 6 16.0214V13.788C7.61 14.5692 9.72 15.0199 12 15.0199C12.0235 15.0199 12.0469 15.0198 12.0704 15.0197C12.536 14.2136 13.1378 13.4963 13.8442 12.8994C13.2488 12.9762 12.6291 13.0168 12 13.0168C9.58 13.0168 7.3 12.4159 6 11.4645V8.65015C7.47 9.48142 9.61 10.0122 12 10.0122C14.39 10.0122 16.53 9.48142 18 8.65015V11.0758C18.3276 11.0348 18.6613 11.0138 19 11.0138C19.3387 11.0138 19.6724 11.0348 20 11.0758V6.00612C20 3.79274 16.42 2 12 2C7.58 2 4 3.79274 4 6.00612V16.0214C4 18.075 7.09024 19.7664 11.0585 20C11.0199 19.6807 11 19.3557 11 19.026C11 18.6765 11.0224 18.3321 11.0657 17.9944ZM6 6.00612C6 6.50688 8.13 8.00918 12 8.00918C15.87 8.00918 18 6.50688 18 6.00612C18 5.50535 15.87 4.00306 12 4.00306C8.13 4.00306 6 5.50535 6 6.00612Z" fill="#4B5163"/>
<path d="M23 18V20H20V23H18V20H15V18H18V15H20V18H23Z" fill="currentColor"/>
</svg>
