<svg width="24" height="24" viewBox="0 0 24 24" fill="none" xmlns="http://www.w3.org/2000/svg">
<path d="M12 23L3.8 17.6C3.55 17.4167 3.35417 17.1833 3.2125 16.9C3.07083 16.6167 3 16.3167 3 16V5C3 4.45 3.19583 3.97917 3.5875 3.5875C3.97917 3.19583 4.45 3 5 3H19C19.55 3 20.0208 3.19583 20.4125 3.5875C20.8042 3.97917 21 4.45 21 5V16C21 16.3167 20.9292 16.6167 20.7875 16.9C20.6458 17.1833 20.45 17.4167 20.2 17.6L12 23ZM12 20.5L19 16V5H5V16L12 20.5Z" fill="currentColor"/>
<rect x="5" y="8" width="2" height="2" fill="#240639"/>
<rect x="9" y="8" width="2" height="2" fill="#240639"/>
<rect x="17" y="8" width="2" height="2" fill="#240639"/>
<rect x="13" y="8" width="2" height="2" fill="#240639"/>
</svg>
