<svg width="24" height="24" viewBox="0 0 24 24" fill="none" xmlns="http://www.w3.org/2000/svg">
<mask id="mask0_87_572" style="mask-type:alpha" maskUnits="userSpaceOnUse" x="0" y="0" width="24" height="24">
<rect width="24" height="24" fill="#D9D9D9"/>
</mask>
<g mask="url(#mask0_87_572)">
<path d="M3 19C2.45 19 1.97917 18.8042 1.5875 18.4125C1.19583 18.0208 1 17.55 1 17V7C1 6.45 1.19583 5.97917 1.5875 5.5875C1.97917 5.19583 2.45 5 3 5H13C13.55 5 14.0208 5.19583 14.4125 5.5875C14.8042 5.97917 15 6.45 15 7V17C15 17.55 14.8042 18.0208 14.4125 18.4125C14.0208 18.8042 13.55 19 13 19H3ZM18 11C17.7167 11 17.4792 10.9042 17.2875 10.7125C17.0958 10.5208 17 10.2833 17 10V6C17 5.71667 17.0958 5.47917 17.2875 5.2875C17.4792 5.09583 17.7167 5 18 5H22C22.2833 5 22.5208 5.09583 22.7125 5.2875C22.9042 5.47917 23 5.71667 23 6V10C23 10.2833 22.9042 10.5208 22.7125 10.7125C22.5208 10.9042 22.2833 11 22 11H18ZM19 9H21V7H19V9ZM3 17H13V7H3V17ZM18 19C17.7167 19 17.4792 18.9042 17.2875 18.7125C17.0958 18.5208 17 18.2833 17 18V14C17 13.7167 17.0958 13.4792 17.2875 13.2875C17.4792 13.0958 17.7167 13 18 13H22C22.2833 13 22.5208 13.0958 22.7125 13.2875C22.9042 13.4792 23 13.7167 23 14V18C23 18.2833 22.9042 18.5208 22.7125 18.7125C22.5208 18.9042 22.2833 19 22 19H18ZM19 17H21V15H19V17ZM10.5 16C10.9167 16 11.2708 15.8542 11.5625 15.5625C11.8542 15.2708 12 14.9167 12 14.5C12 14.0833 11.8542 13.7292 11.5625 13.4375C11.2708 13.1458 10.9167 13 10.5 13C10.0833 13 9.72917 13.1458 9.4375 13.4375C9.14583 13.7292 9 14.0833 9 14.5C9 14.9167 9.14583 15.2708 9.4375 15.5625C9.72917 15.8542 10.0833 16 10.5 16ZM5.45 15.95L11.95 9.45L10.55 8.05L4.05 14.55L5.45 15.95ZM5.5 11C5.91667 11 6.27083 10.8542 6.5625 10.5625C6.85417 10.2708 7 9.91667 7 9.5C7 9.08333 6.85417 8.72917 6.5625 8.4375C6.27083 8.14583 5.91667 8 5.5 8C5.08333 8 4.72917 8.14583 4.4375 8.4375C4.14583 8.72917 4 9.08333 4 9.5C4 9.91667 4.14583 10.2708 4.4375 10.5625C4.72917 10.8542 5.08333 11 5.5 11Z" fill="currentColor"/>
</g>
</svg>
