<svg width="24" height="24" viewBox="0 0 24 24" fill="none" xmlns="http://www.w3.org/2000/svg">
<rect x="-1" y="1" width="18" height="18" rx="2" transform="matrix(-1 0 0 1 20 1)" stroke="#4B5163" stroke-width="2"/>
<path d="M16 21L16 23L19 23L19 21L16 21Z" fill="#4B5163"/>
<path d="M5 21L5 23L8 23L8 21L5 21Z" fill="#4B5163"/>
<rect width="4" height="2" transform="matrix(-1 0 0 1 5 5)" fill="#4B5163"/>
<rect width="4" height="2" transform="matrix(-1 0 0 1 5 15)" fill="#4B5163"/>
<path fill-rule="evenodd" clip-rule="evenodd" d="M12 8C13.6569 8 15 9.34315 15 11C15 12.6569 13.6569 14 12 14C10.3431 14 9 12.6569 9 11C9 9.34315 10.3431 8 12 8ZM13.5 11C13.5 10.1716 12.8284 9.5 12 9.5C11.1716 9.5 10.5 10.1716 10.5 11C10.5 11.8284 11.1716 12.5 12 12.5C12.8284 12.5 13.5 11.8284 13.5 11Z" fill="currentColor"/>
</svg>
