<svg width="24" height="24" viewBox="0 0 24 24" fill="none" xmlns="http://www.w3.org/2000/svg">
<path d="M11 7H13V9H11V7Z" fill="currentColor"/>
<path d="M7 11H9V13H7V11Z" fill="currentColor"/>
<path d="M11 11H13V13H11V11Z" fill="currentColor"/>
<path d="M3 11H5V13H3V11Z" fill="currentColor"/>
<path d="M11 3H13V5H11V3Z" fill="currentColor"/>
<path fill-rule="evenodd" clip-rule="evenodd" d="M5 5V7H7V5H5ZM4 3C3.44772 3 3 3.44772 3 4V8C3 8.55228 3.44772 9 4 9H8C8.55228 9 9 8.55228 9 8V4C9 3.44772 8.55228 3 8 3H4Z" fill="currentColor"/>
<path fill-rule="evenodd" clip-rule="evenodd" d="M5 17V19H7V17H5ZM4 15C3.44772 15 3 15.4477 3 16V20C3 20.5523 3.44772 21 4 21H8C8.55228 21 9 20.5523 9 20V16C9 15.4477 8.55228 15 8 15H4Z" fill="currentColor"/>
<path fill-rule="evenodd" clip-rule="evenodd" d="M17 5V7H19V5H17ZM16 3C15.4477 3 15 3.44772 15 4V8C15 8.55228 15.4477 9 16 9H20C20.5523 9 21 8.55228 21 8V4C21 3.44772 20.5523 3 20 3H16Z" fill="currentColor"/>
<path d="M14 18H17V13H19V18H22L18 22L14 18Z" fill="currentColor"/>
</svg>
