<svg width="16" height="22" viewBox="0 0 16 22" fill="none" xmlns="http://www.w3.org/2000/svg">
<path d="M1.1 15.05C0.733333 14.4167 0.458333 13.7667 0.275 13.1C0.0916667 12.4333 0 11.75 0 11.05C0 8.81667 0.775 6.91667 2.325 5.35C3.875 3.78333 5.76667 3 8 3H8.175L6.575 1.4L7.975 0L11.975 4L7.975 8L6.575 6.6L8.175 5H8C6.33333 5 4.91667 5.5875 3.75 6.7625C2.58333 7.9375 2 9.36667 2 11.05C2 11.4833 2.05 11.9083 2.15 12.325C2.25 12.7417 2.4 13.15 2.6 13.55L1.1 15.05ZM8.025 22L4.025 18L8.025 14L9.425 15.4L7.825 17H8C9.66667 17 11.0833 16.4125 12.25 15.2375C13.4167 14.0625 14 12.6333 14 10.95C14 10.5167 13.95 10.0917 13.85 9.675C13.75 9.25833 13.6 8.85 13.4 8.45L14.9 6.95C15.2667 7.58333 15.5417 8.23333 15.725 8.9C15.9083 9.56667 16 10.25 16 10.95C16 13.1833 15.225 15.0833 13.675 16.65C12.125 18.2167 10.2333 19 8 19H7.825L9.425 20.6L8.025 22Z" fill="currentColor"/>
</svg>
